<svg width="90" height="90" viewBox="0 0 90 90" fill="none" xmlns="http://www.w3.org/2000/svg">
<path d="M43.8 1.2C17.725 2.5625 0.51249 23.0125 1.59999 48.8C2.07499 60.0875 6.61249 69.8 7.68749 80.5125C7.96249 83.2875 7.16249 86.7125 10.3625 87.925C14.3 89.4125 20.3375 86.9125 23.6375 84.625C24.7625 83.8625 25.8375 82.975 26.6625 81.875C30.075 84.1375 33.3125 86.325 37.375 87.3C55.2625 91.5875 74.8625 81.775 83.575 66.0125C99.95 36.4 77.8125 -0.574996 43.8 1.2ZM33.675 63C32.2625 64.1 30.9 65.6 29.3375 66.4625C27.075 67.675 26.375 66.4125 25.525 64.4125C22.85 58.05 22.525 47.2125 24.0875 40.55C26.1875 31.4875 33.2 23.5125 42.8375 22.6625C52.5875 21.8 61.6375 26.75 65.725 35.6875C74.775 55.575 51.6125 75.2125 33.675 63.0125V63Z" fill="#EE9F00"/>
</svg>
