<svg width="90" height="90" viewBox="0 0 90 90" fill="none" xmlns="http://www.w3.org/2000/svg">
<g clip-path="url(#clip0_1_4)">
<path d="M89.5229 65.6995C89.4139 65.4646 89.3123 65.2698 89.2179 65.1137C87.6564 62.3014 84.6725 58.8495 80.2678 54.757L80.1747 54.6633L80.1281 54.6173L80.081 54.5702H80.0338C78.0347 52.6646 76.7688 51.3832 76.2387 50.7272C75.2687 49.4775 75.0514 48.2126 75.5815 46.931C75.956 45.9626 77.3629 43.9176 79.7989 40.7931C81.0802 39.1373 82.095 37.8101 82.8444 36.8103C88.2493 29.6248 90.5925 25.0332 89.8736 23.0337L89.5945 22.5664C89.4069 22.2851 88.9227 22.0277 88.1426 21.793C87.3607 21.5588 86.3613 21.5201 85.1427 21.6762L71.6476 21.7694C71.4289 21.6919 71.1168 21.6992 70.7101 21.793C70.3039 21.8869 70.1007 21.934 70.1007 21.934L69.8658 22.0514L69.6794 22.1924C69.5231 22.2856 69.3513 22.4495 69.1637 22.6839C68.9771 22.9175 68.821 23.1916 68.6962 23.5039C67.227 27.2839 65.5565 30.7983 63.6817 34.047C62.5257 35.9842 61.4642 37.6631 60.4947 39.0846C59.5265 40.5056 58.7142 41.5525 58.0587 42.2236C57.4022 42.8954 56.8097 43.4336 56.2776 43.8401C55.7463 44.2468 55.3408 44.4187 55.06 44.3558C54.7785 44.293 54.5134 44.2306 54.2625 44.1682C53.8254 43.8869 53.4738 43.5043 53.2088 43.0202C52.9426 42.536 52.7633 41.9266 52.6696 41.1924C52.5764 40.4578 52.5213 39.8259 52.5055 39.2947C52.4909 38.764 52.4976 38.0135 52.5293 37.0451C52.5618 36.0763 52.5764 35.4208 52.5764 35.0771C52.5764 33.8898 52.5995 32.6012 52.646 31.2111C52.6933 29.8209 52.7315 28.7195 52.7635 27.9081C52.7953 27.0958 52.8101 26.2364 52.8101 25.3305C52.8101 24.4245 52.755 23.714 52.646 23.1983C52.5383 22.6833 52.3731 22.1833 52.1553 21.6987C51.9361 21.2145 51.6154 20.84 51.1946 20.5741C50.773 20.3085 50.2488 20.0978 49.6249 19.9412C47.969 19.5665 45.8605 19.3638 43.2983 19.3323C37.4881 19.2699 33.7547 19.6451 32.099 20.4574C31.443 20.8006 30.8494 21.2695 30.3186 21.8626C29.7561 22.5502 29.6777 22.9253 30.0837 22.9871C31.9584 23.2679 33.2855 23.9396 34.0666 25.0017L34.348 25.5645C34.567 25.9705 34.7856 26.6894 35.0044 27.7201C35.2228 28.7508 35.3638 29.891 35.4259 31.14C35.5818 33.4209 35.5818 35.3733 35.4259 36.9975C35.2694 38.6224 35.1217 39.8873 34.9807 40.7933C34.8398 41.6993 34.629 42.4334 34.348 42.9955C34.0666 43.5578 33.8793 43.9015 33.7854 44.0263C33.6917 44.151 33.6136 44.2296 33.5515 44.2605C33.1455 44.4161 32.7232 44.4953 32.2861 44.4953C31.8484 44.4953 31.3176 44.2764 30.6929 43.8388C30.0684 43.4013 29.4203 42.8002 28.7485 42.0347C28.0768 41.2691 27.3192 40.1992 26.4754 38.8248C25.6323 37.4504 24.7575 35.826 23.8515 33.9517L23.1019 32.5924C22.6334 31.7179 21.9933 30.4446 21.181 28.7737C20.3682 27.102 19.6499 25.4851 19.0254 23.9231C18.7757 23.2671 18.4007 22.7676 17.9009 22.4239L17.6664 22.283C17.5105 22.1582 17.2602 22.0258 16.9168 21.8846C16.573 21.7436 16.2142 21.6425 15.839 21.5803L2.99957 21.6736C1.68755 21.6736 0.797326 21.9708 0.328581 22.5644L0.140985 22.8452C0.0472684 23.0017 0 23.2515 0 23.5953C0 23.939 0.0937162 24.3608 0.281313 24.8602C2.15564 29.2654 4.19392 33.5138 6.39617 37.6061C8.59842 41.6984 10.5121 44.9949 12.1362 47.4926C13.7605 49.9921 15.4162 52.3511 17.1033 54.5684C18.7903 56.7866 19.9071 58.2081 20.4534 58.8326C21.0005 59.4582 21.4301 59.926 21.7425 60.2383L22.9142 61.3628C23.6639 62.1126 24.7649 63.0107 26.2175 64.057C27.6706 65.104 29.2792 66.1347 31.0442 67.1508C32.8095 68.1653 34.8632 68.9932 37.2065 69.6334C39.5494 70.2743 41.8297 70.5315 44.0479 70.4074H49.4368C50.5297 70.3131 51.3578 69.9694 51.9206 69.3762L52.107 69.1414C52.2324 68.9549 52.3497 68.6652 52.4581 68.2754C52.5677 67.885 52.6222 67.4548 52.6222 66.9869C52.5902 65.6438 52.6924 64.4334 52.9262 63.3557C53.1597 62.2784 53.4259 61.4662 53.7236 60.9191C54.0212 60.3726 54.357 59.9114 54.7307 59.5375C55.1053 59.1628 55.3721 58.9358 55.5287 58.8577C55.6843 58.7791 55.8085 58.7257 55.9023 58.6937C56.652 58.4439 57.5343 58.6859 58.5506 59.4206C59.5661 60.1548 60.5185 61.0613 61.4094 62.1386C62.2997 63.2169 63.3695 64.4267 64.6188 65.7697C65.869 67.1133 66.9621 68.112 67.8989 68.769L68.8357 69.3313C69.4614 69.7064 70.2737 70.0501 71.2735 70.3625C72.2716 70.6746 73.146 70.7527 73.8969 70.5967L85.8924 70.4096C87.0789 70.4096 88.0021 70.2131 88.657 69.8233C89.3131 69.4328 89.7029 69.0027 89.8287 68.5347C89.9541 68.0663 89.9608 67.5349 89.8525 66.9408C89.7413 66.3481 89.6319 65.9337 89.5229 65.6995Z" fill="#EE9F00"/>
</g>
<defs>
<clipPath id="clip0_1_4">
<rect width="90" height="90" fill="white"/>
</clipPath>
</defs>
</svg>
